<mxfile host="app.diagrams.net" modified="2023-10-16T02:16:20.461Z" agent="Mozilla/5.0 (Windows NT 10.0; Win64; x64; rv:109.0) Gecko/20100101 Firefox/118.0" etag="IvPOKZzJdAM4x6p4YAJJ" version="22.0.4" type="github">
  <diagram id="C5RBs43oDa-KdzZeNtuy" name="Page-1">
    <mxGraphModel dx="766" dy="416" grid="1" gridSize="10" guides="1" tooltips="1" connect="1" arrows="1" fold="1" page="1" pageScale="1" pageWidth="827" pageHeight="1169" math="0" shadow="0">
      <root>
        <mxCell id="WIyWlLk6GJQsqaUBKTNV-0" />
        <mxCell id="WIyWlLk6GJQsqaUBKTNV-1" parent="WIyWlLk6GJQsqaUBKTNV-0" />
        <mxCell id="wH1S-LeKW4F5L-PwkFBP-8" style="edgeStyle=orthogonalEdgeStyle;rounded=0;orthogonalLoop=1;jettySize=auto;html=1;exitX=0.5;exitY=1;exitDx=0;exitDy=0;exitPerimeter=0;entryX=0.5;entryY=0;entryDx=0;entryDy=0;" edge="1" parent="WIyWlLk6GJQsqaUBKTNV-1" source="wH1S-LeKW4F5L-PwkFBP-0" target="wH1S-LeKW4F5L-PwkFBP-1">
          <mxGeometry relative="1" as="geometry" />
        </mxCell>
        <mxCell id="wH1S-LeKW4F5L-PwkFBP-0" value="star" style="strokeWidth=2;html=1;shape=mxgraph.flowchart.terminator;whiteSpace=wrap;" vertex="1" parent="WIyWlLk6GJQsqaUBKTNV-1">
          <mxGeometry x="350" y="50" width="100" height="40" as="geometry" />
        </mxCell>
        <mxCell id="wH1S-LeKW4F5L-PwkFBP-13" style="edgeStyle=orthogonalEdgeStyle;rounded=0;orthogonalLoop=1;jettySize=auto;html=1;exitX=0.5;exitY=1;exitDx=0;exitDy=0;entryX=0.5;entryY=0;entryDx=0;entryDy=0;" edge="1" parent="WIyWlLk6GJQsqaUBKTNV-1" source="wH1S-LeKW4F5L-PwkFBP-1" target="wH1S-LeKW4F5L-PwkFBP-2">
          <mxGeometry relative="1" as="geometry" />
        </mxCell>
        <mxCell id="wH1S-LeKW4F5L-PwkFBP-1" value="Input alas" style="shape=parallelogram;html=1;strokeWidth=2;perimeter=parallelogramPerimeter;whiteSpace=wrap;rounded=1;arcSize=12;size=0.23;" vertex="1" parent="WIyWlLk6GJQsqaUBKTNV-1">
          <mxGeometry x="345" y="160" width="110" height="40" as="geometry" />
        </mxCell>
        <mxCell id="wH1S-LeKW4F5L-PwkFBP-2" value="input tinggi" style="shape=parallelogram;html=1;strokeWidth=2;perimeter=parallelogramPerimeter;whiteSpace=wrap;rounded=1;arcSize=12;size=0.23;" vertex="1" parent="WIyWlLk6GJQsqaUBKTNV-1">
          <mxGeometry x="345" y="250" width="110" height="40" as="geometry" />
        </mxCell>
        <mxCell id="wH1S-LeKW4F5L-PwkFBP-16" style="edgeStyle=orthogonalEdgeStyle;rounded=0;orthogonalLoop=1;jettySize=auto;html=1;exitX=0.5;exitY=1;exitDx=0;exitDy=0;entryX=0.5;entryY=0;entryDx=0;entryDy=0;" edge="1" parent="WIyWlLk6GJQsqaUBKTNV-1" source="wH1S-LeKW4F5L-PwkFBP-3" target="wH1S-LeKW4F5L-PwkFBP-4">
          <mxGeometry relative="1" as="geometry" />
        </mxCell>
        <mxCell id="wH1S-LeKW4F5L-PwkFBP-3" value="Luas &amp;lt;-(alas tinggi )/ 2" style="rounded=1;whiteSpace=wrap;html=1;absoluteArcSize=1;arcSize=14;strokeWidth=2;" vertex="1" parent="WIyWlLk6GJQsqaUBKTNV-1">
          <mxGeometry x="345" y="350" width="130" height="60" as="geometry" />
        </mxCell>
        <mxCell id="wH1S-LeKW4F5L-PwkFBP-4" value="Tampilkan luas" style="shape=parallelogram;html=1;strokeWidth=2;perimeter=parallelogramPerimeter;whiteSpace=wrap;rounded=1;arcSize=12;size=0.23;" vertex="1" parent="WIyWlLk6GJQsqaUBKTNV-1">
          <mxGeometry x="355" y="480" width="110" height="40" as="geometry" />
        </mxCell>
        <mxCell id="wH1S-LeKW4F5L-PwkFBP-5" value="" style="strokeWidth=2;html=1;shape=mxgraph.flowchart.terminator;whiteSpace=wrap;" vertex="1" parent="WIyWlLk6GJQsqaUBKTNV-1">
          <mxGeometry x="360" y="585" width="100" height="40" as="geometry" />
        </mxCell>
        <mxCell id="wH1S-LeKW4F5L-PwkFBP-15" style="edgeStyle=orthogonalEdgeStyle;rounded=0;orthogonalLoop=1;jettySize=auto;html=1;exitX=0.5;exitY=1;exitDx=0;exitDy=0;entryX=0.417;entryY=-0.017;entryDx=0;entryDy=0;entryPerimeter=0;" edge="1" parent="WIyWlLk6GJQsqaUBKTNV-1" source="wH1S-LeKW4F5L-PwkFBP-2" target="wH1S-LeKW4F5L-PwkFBP-3">
          <mxGeometry relative="1" as="geometry" />
        </mxCell>
        <mxCell id="wH1S-LeKW4F5L-PwkFBP-17" style="edgeStyle=orthogonalEdgeStyle;rounded=0;orthogonalLoop=1;jettySize=auto;html=1;exitX=0.5;exitY=1;exitDx=0;exitDy=0;entryX=0.5;entryY=0;entryDx=0;entryDy=0;entryPerimeter=0;" edge="1" parent="WIyWlLk6GJQsqaUBKTNV-1" source="wH1S-LeKW4F5L-PwkFBP-4" target="wH1S-LeKW4F5L-PwkFBP-5">
          <mxGeometry relative="1" as="geometry" />
        </mxCell>
      </root>
    </mxGraphModel>
  </diagram>
</mxfile>
